<svg id="Layer_1" data-name="Layer 1"
    xmlns="http://www.w3.org/2000/svg" viewBox="0 0 608.84 608.84">
    <!-- xmlns="http://www.w3.org/2000/svg" viewBox="0 0 608.84 622.91"> -->
    <defs>
        <style>.cls-1{fill:#1e1f26;}</style>
    </defs>
    <title>logo</title>
    <path class="cls-1" d="M432.35,295.73c-.54,1.91-1.79,12-2.06,13.94-3.28,23.74-3.61,47.55.87,71.09a88.36,88.36,0,0,0,10.33,28.47c1.64,2.84,3.72,5.53,5.33,8.38,7.65,13.51,28.36,14.19,41.35,8.24,7.9-3.61,21.42-16.52,23.78-18.6,24.07-21.22,43.21-46.93,61.7-72.92,10.37-14.57,21-29.16,27.75-46,4-2.31,3.79-6.8,5.31-10.36,1.26-3,1.67-6.37,5.66-8.56-.22,9.26-3.38,16.88-7,24.17a344.84,344.84,0,0,1-38.61,61.33,801.38,801.38,0,0,1-53.68,61c-7.67,7.85-17.27,16.21-29,18.92-3.31.77-19.35,3-24.44,1a42.5,42.5,0,0,1-17.78-12.42,178.55,178.55,0,0,1-10.95-16.2,76.85,76.85,0,0,1-4.29-10.9,165.75,165.75,0,0,1-5.55-31,227.4,227.4,0,0,1,3.58-68.27c.77-3.76.42-6.4-2.37-10-6.45-7.22-22.77-30.89-25.46-34.63-4.87-9-13.4-15.09-19.19-23.39-2.33-3.34-5.44-2.94-8.87-1.57-15,6-47,21.11-48.36,21.82-8.72,4.72-17.33,9.65-26,14.55-4.07,2.3-3.75,6.3-2.72,9.69,4.44,14.66,5,29.92,7,44.92a250.91,250.91,0,0,1,.8,58.37c-.84,8.53-1.75,16.31-3.31,25.42-.6,3.48-1.9,6.8-2.84,10.2-4.29,11-17.4,42.34-22.46,49.92a136.76,136.76,0,0,1-28.59,30.7c-14.49,11.59-30.86,20.68-50.8,18.9-18.55-1.66-30.4-11.68-36.55-29-7.44-20.93-7-42.26-3.46-63.78.7-4.24.68-8.62,1.87-12.75,1-3.42,4.35-13.59,5.45-16.64,5.48-15.15,9.74-22.63,19-35.21a261.4,261.4,0,0,1,21.26-26.07c18.54-19.49,37.58-38.27,60.58-52.66,5.58-3.49,10.68-7.81,16.45-11.1,2.4-1.37,4.26-2.86,3.58-6.24-1.6-7.95-8.32-27.72-9.43-30.23-10.53-24-20.24-48.2-35.53-70-10.64-15.15-22-30-31.21-46.11A79.66,79.66,0,0,1,193.45,82.7a14.16,14.16,0,0,1,1.32-8.15c3.9-6.85,9.15-11.31,15.33-16.34,22.1-18,46.54-30.32,75-34.29,5.63-.78,10.45.35,13,5.61a24.2,24.2,0,0,1,2.9,11.22c-7.19-8.83-15.89-8.24-25.22-6.84C252.66,37.37,233,47.48,215.63,62.73c-2.48,2.18-12.4,12.5-13.59,17.55-1.21,3.31,1.26,10.44,2.38,13.73C210,110.33,220.28,124,230.13,137.6c13.24,18.34,25.32,37.13,34.35,58,3.92,9,21,46.91,21.95,58,.35,4,3.3,3.39,5.83,1.74,5.46-3.58,10.71-8.33,16.45-10.48,16.13-6.05,31.05-14.69,47.24-20.61,7.77-2.85,15.13-5.43,23.13-9.73,10-5.37,19.09-8.14,29.08-17.5a3.83,3.83,0,0,1,4.41-.76c1.54.8,2.9,1.79,2.77,3.7a45.23,45.23,0,0,1-.82,4.86,107.7,107.7,0,0,0-.73,33.57c.63,17.91,3.33,25.29,14,33,1.49-1.47,5-19.16,7.8-26.56q7.53-22.57,15.06-45.15c8.09-24.25,15.43-48.74,24.38-72.7,4-10.8,8-21.62,12-32.43,5.52-10.89,11.16-21.72,18.48-31.54,6.28-8.41,15.35-15.26,25.06-9.45,2.74,1.64,7.74,13.38,8.7,18.39,2.54,10.14,4.45,29.07,4.78,33.53.32,4.26.36,17.53.54,21.8a30,30,0,0,1-1.48,9.63c-.78,2.69-2.1,4.14-4.86,3.48s-2.06-2.77-1.78-4.78c1.56-11.18.3-22.34-.43-33.49-.89-10.76-.85-21.67-5.16-31.88-3.73-8.85-6.61-9.85-14.85-5-2.93,1.72-5,4.36-7.06,6.9-5.9,7.18-9.07,16-12.92,24.22-6.48,13.88-11.25,28.07-16.51,42.32-7,18.94-12.84,38.28-19.53,57.33-2.1,6-10.78,31.32-12.7,38.21-4.32,15.51-8.24,31.14-12,46.79ZM288.78,396c2.38-7.62,2.48-15.56,3.21-23.44,2.92-31.76-.45-63-7.39-93.95-1.72-7.7-2.22-7.88-8.88-3.74a322.35,322.35,0,0,0-48.64,36.36c-22.18,20.42-41.17,43.31-55.83,69.69-3,5.42-9.16,22.4-9.57,25.63-8.09,25.83-8.45,51.55,1.22,77.08a31.23,31.23,0,0,0,7.43,11.66c11.07,10.72,24.49,11.32,38.11,7.87,11.72-3,21.81-9.91,30.72-17.93,19.38-17.43,33-38.81,41.3-63.5C281.69,418,288,398.37,288.78,396Z" transform="translate(-69.94 -23.7)"/>
    <path class="cls-1" d="M287.08,553.8c-15.71,3.26-30.14,10.14-44.89,16.06-15.07,6-29.85,12.83-44.69,19.45-17.58,7.85-34.9,16.28-52.68,23.62-9.46,3.91-19.12,7.51-28.73,11.08-12.92,4.8-25.68,10.62-37.35,18.32-2.64,1.74-4.81,4.47-8.29,4.27-1.42-2.67.43-3.27,1.72-4.15a144.29,144.29,0,0,1,39.15-19.11,14.71,14.71,0,0,0,3.7-1.46c27.22-17.67,58.05-27.85,87.09-41.76,17.31-8.3,35.24-15.32,52.89-22.92,15.18-6.61,31.1-11.25,46.48-17.3C321.58,532,342,525,362.36,517.79c22.51-7.94,45.12-15.66,67.86-22.91,29.11-9.28,58.46-17.83,87.6-27,37.43-11.79,75.65-20.9,112.68-34,2.46-.87,5.13-1.24,6.86-4-4.58-5.52-11.9,2.67-16.31-4,12.17-4.14,23.21-10.76,36.1-12.66,6.94-1,13,2,19.48,3.08,1.31.23,2,1.75,2.12,3.13a4.12,4.12,0,0,1-3.25,4.47c-5.48,1.55-10.38,4.47-15.66,6.37-27.21,9.75-54.38,19.73-82.35,27.05-37,9.67-73.54,20.84-110.06,32.08-32.65,10.06-65.18,20.47-97.15,32.62-18.59,7.06-37.68,12.77-56.43,19.41C304.58,544.75,295.34,548.27,287.08,553.8Z" transform="translate(-69.94 -23.7)"/>
</svg>